<svg xmlns="http://www.w3.org/2000/svg" width="164" height="32" viewBox="0 0 164 32" fill="none"><g clip-path="url(#clip0_345_2799)"><mask id="mask0_345_2799" style="mask-type:alpha" maskUnits="userSpaceOnUse" x="0" y="1" width="164" height="31"><path d="M14.9069 13.7827L11.4749 13.0759C8.14386 12.3691 6.73069 11.2585 6.73069 9.441C6.73069 7.21968 8.7495 5.70514 11.6768 5.70514C14.6041 5.70514 16.7238 7.21968 16.9257 9.54197H22.5784C22.4774 4.59447 18.036 1.06055 11.6768 1.06055C5.11564 1.06055 0.775188 4.59447 0.775188 9.94585C0.775188 14.2875 3.29871 17.0137 8.54762 18.1244L12.2824 18.9321C15.8154 19.7399 17.2285 20.8505 17.2285 22.668C17.2285 24.8893 15.0078 26.5048 11.8787 26.5048C8.44668 26.5048 6.12504 24.9903 5.82222 22.567H0.0686035C0.270485 27.9184 4.71187 31.2504 11.5758 31.2504C18.7426 31.2504 23.184 27.7165 23.184 21.9612C23.184 17.5185 20.7614 15.0953 14.9069 13.7827Z" fill="black"></path><path d="M38.8302 1.76758H26.8183V30.5438H32.8747V21.4566H38.5274C44.5839 21.4566 48.8234 17.5188 48.8234 11.6626C48.8234 5.70538 44.7857 1.76758 38.8302 1.76758ZM37.2152 16.711H32.8747V6.61411H37.2152C40.6472 6.61411 42.666 8.43156 42.666 11.7635C42.666 14.9946 40.6472 16.711 37.2152 16.711Z" fill="black"></path><path d="M104.543 10.9558C104.543 5.30151 100.707 1.76758 94.3479 1.76758H82.3359V30.5438H88.3924V20.043H93.3385L98.6883 30.5438H105.451L99.3949 19.1343C102.625 17.8217 104.543 14.5907 104.543 10.9558ZM93.5403 15.4994H88.2914V6.41217H93.5403C96.5686 6.41217 98.3855 8.12865 98.3855 10.9558C98.3855 13.8839 96.5686 15.4994 93.5403 15.4994Z" fill="black"></path><path d="M106.864 6.71508H115.545V30.5438H121.501V6.71508H130.181V1.76758H106.864V6.71508Z" fill="black"></path><path d="M139.469 1.76758H133.413V30.5438H139.469V1.76758Z" fill="black"></path><path d="M163.391 6.71508V1.76758H144.414V30.5438H163.391V25.5963H150.369V18.3265H162.684V13.682H150.369V6.71508H163.391Z" fill="black"></path></mask><g mask="url(#mask0_345_2799)"><rect x="0.0686035" y="1.06055" width="163.322" height="30.1898" fill="#EEEFEB"></rect></g></g><path d="M77.6348 24.3146C78.11 23.596 78.4663 22.8774 78.8227 22.0989C78.6445 22.5181 78.4069 22.9971 78.8227 22.0989C79.1197 21.3803 79.0009 21.7396 78.8227 22.0989C80.07 19.2843 80.4263 16.0506 79.8324 13.0564C79.2385 10.0622 77.7536 7.3075 75.6155 5.15168C73.2991 2.8162 70.27 1.3191 67.0628 0.89991C64.2119 0.480722 61.3016 0.959795 58.6883 2.09759C55.7186 3.47493 53.2241 5.8104 51.6205 8.74472C50.195 11.4395 49.5417 14.6134 49.898 17.6674C50.195 20.6018 51.3829 23.3564 53.2241 25.632C55.1841 28.0274 57.8568 29.8239 60.8265 30.6623C63.7367 31.5007 66.8252 31.4408 69.6761 30.4826C72.9427 29.4047 75.7936 27.189 77.6348 24.3146Z" fill="#EEEFEB"></path><path d="M75.9691 23.1761C76.3255 22.5772 76.6819 21.9784 76.9788 21.3197C76.8006 21.679 76.6225 22.0982 76.9788 21.3197C77.2164 20.7208 77.0976 21.0202 76.9788 21.3197C78.0479 18.9243 78.2855 16.2295 77.8103 13.6545C77.3352 11.1394 76.0879 8.80389 74.2467 6.94748C72.2867 4.97131 69.7328 3.71374 67.0007 3.35444C64.625 2.99514 62.1304 3.35444 59.9329 4.37247C57.4384 5.51027 55.3002 7.54632 53.9935 10.0016C52.7463 12.2772 52.2711 14.9121 52.5681 17.4871C52.8057 19.9423 53.8153 22.2778 55.3596 24.1941C57.0226 26.2301 59.2796 27.7272 61.7741 28.4459C64.2092 29.1645 66.8225 29.1046 69.2577 28.2662C71.9898 27.4278 74.3655 25.5714 75.9691 23.1761Z" fill="#EEEFEB"></path><g clip-path="url(#clip1_345_2799)"><path d="M77.6133 15.8261C77.4513 15.8261 77.2893 15.772 77.1543 15.6908C76.9653 15.5555 76.8843 15.3662 76.8573 15.285C76.8573 15.1768 76.8303 15.0956 76.8303 14.9874C76.8303 14.9062 76.8843 14.6898 77.0463 14.5004C77.1543 14.3922 77.3163 14.311 77.4783 14.2569C77.7213 14.2028 77.8833 13.9593 77.8293 13.7158C77.7753 13.4723 77.5323 13.31 77.2893 13.3641C77.1273 13.3911 76.9653 13.3911 76.8033 13.31C76.5873 13.2017 76.4793 13.0394 76.4253 12.9583C76.3713 12.7959 76.3443 12.6336 76.2903 12.4713C76.2903 12.4713 76.2363 12.2007 76.3983 11.9031C76.4793 11.7678 76.6143 11.6596 76.7763 11.5784C77.0193 11.4702 77.1003 11.1997 77.0193 10.9832C76.8843 10.7938 76.6143 10.6856 76.3983 10.7938C76.2363 10.848 76.0743 10.875 75.9123 10.848C75.5883 10.7668 75.4263 10.5503 75.4263 10.5503V10.5774C75.3724 10.4692 75.3184 10.361 75.2644 10.2798C75.2374 10.1716 75.2104 9.98219 75.2914 9.76574C75.3454 9.60341 75.4533 9.46814 75.5883 9.38697C75.8043 9.2517 75.8313 8.95409 75.6963 8.7647C75.5613 8.54826 75.2644 8.52121 75.0754 8.65648C74.9404 8.73765 74.7784 8.81881 74.6164 8.79176C74.3464 8.79176 74.1574 8.65648 74.1034 8.60237C74.0224 8.49415 73.9144 8.38593 73.8334 8.27771L73.8604 8.30477C73.8604 8.30477 73.6984 8.08833 73.7254 7.73661C73.7524 7.57428 73.8334 7.41195 73.9414 7.30373C74.1034 7.11434 74.1034 6.84379 73.9144 6.6544C73.7254 6.49207 73.4554 6.49207 73.2664 6.68146C73.1584 6.78968 72.9964 6.8979 72.8344 6.92495C72.5105 6.97906 72.2675 6.84379 72.2675 6.84379L72.2945 6.87084C72.2135 6.81673 72.1325 6.73557 72.0515 6.68146C71.9975 6.62735 71.8625 6.46502 71.8355 6.16741C71.8085 6.00508 71.8625 5.84275 71.9435 5.70747C72.0785 5.49103 71.9975 5.22048 71.7815 5.0852C71.5655 4.94993 71.2955 5.03109 71.1605 5.24753C71.0795 5.38281 70.9445 5.49103 70.8095 5.5722C70.5395 5.68042 70.2965 5.62631 70.2425 5.59925C70.1076 5.49103 69.9726 5.43692 69.8646 5.38281C69.8646 5.38281 69.6216 5.24753 69.5136 4.92287C69.4596 4.76054 69.4596 4.59821 69.5136 4.43588C69.5946 4.19238 69.4596 3.94889 69.2166 3.86772C68.9736 3.78656 68.7306 3.92183 68.6496 4.16533C68.5956 4.32766 68.4876 4.46293 68.3526 4.57116C68.1366 4.73349 67.9206 4.73349 67.8396 4.73349C67.7046 4.70643 67.5697 4.67938 67.4347 4.65232H67.5427C67.5427 4.65232 67.2727 4.57116 67.1107 4.27355C67.0297 4.13827 67.0027 3.94889 67.0297 3.78656C67.0567 3.54306 66.8677 3.29956 66.6247 3.27251C66.3817 3.24545 66.1387 3.43484 66.1117 3.67834C66.0847 3.84067 66.0307 4.003 65.9227 4.11122C65.7337 4.32766 65.5177 4.35471 65.4367 4.38177C65.3287 4.38177 65.1937 4.38177 65.0857 4.38177C65.0317 4.38177 64.7888 4.32766 64.5998 4.08416C64.4918 3.94889 64.4378 3.81361 64.4108 3.62423C64.4108 3.38073 64.1948 3.19134 63.9518 3.2184C63.7088 3.24545 63.5198 3.46189 63.5468 3.70539C63.5738 3.86772 63.5198 4.03005 63.4388 4.19238C63.2768 4.43588 63.0878 4.51705 63.0068 4.5441C62.8718 4.57116 62.7368 4.59821 62.6288 4.62527C62.5208 4.62527 62.3589 4.57116 62.1699 4.43588C62.0349 4.32766 61.9539 4.19238 61.8999 4.03005C61.8189 3.78656 61.5759 3.65128 61.3329 3.73245C61.0899 3.81361 60.9549 4.05711 61.0089 4.3006C61.0629 4.46293 61.0629 4.62527 61.0089 4.7876C60.9279 5.03109 60.7659 5.16637 60.6849 5.22048C60.5499 5.27459 60.3879 5.3287 60.2529 5.40987L60.3339 5.35575C60.3339 5.35575 60.0639 5.43692 59.767 5.30164C59.605 5.22048 59.497 5.11226 59.416 4.97698C59.281 4.76054 59.011 4.67938 58.795 4.7876C58.579 4.92287 58.498 5.19342 58.606 5.40987C58.687 5.54514 58.714 5.73453 58.714 5.89686C58.66 6.24857 58.471 6.41091 58.471 6.41091C58.39 6.46502 58.309 6.51913 58.228 6.57324C58.174 6.60029 57.958 6.70851 57.661 6.62735C57.499 6.60029 57.364 6.49207 57.256 6.3568C57.0941 6.16741 56.7971 6.14035 56.6081 6.30269C56.4191 6.46502 56.3921 6.76262 56.5541 6.95201C56.6621 7.08728 56.7431 7.22256 56.7431 7.41195C56.7701 7.6825 56.6621 7.89894 56.6081 7.95305C56.5271 8.03421 56.4191 8.14244 56.3381 8.25066V8.2236C56.3381 8.2236 56.1221 8.41299 55.7981 8.41299C55.6361 8.41299 55.4741 8.35888 55.3391 8.25066C55.1501 8.08833 54.8531 8.14244 54.6911 8.33182C54.5292 8.52121 54.5832 8.81881 54.7721 8.98114C54.9071 9.08937 55.0151 9.22464 55.0421 9.38697C55.1231 9.63047 55.0691 9.81985 55.0421 9.92807C54.9881 10.0092 54.9341 10.0904 54.9071 10.1716C54.8531 10.2257 54.6911 10.388 54.4212 10.4151C54.2592 10.4421 54.0972 10.4151 53.9352 10.3339C53.7192 10.2257 53.4492 10.3068 53.3412 10.5503C53.2332 10.7668 53.3142 11.0373 53.5572 11.1456C53.7192 11.2267 53.8272 11.3349 53.9082 11.4702C54.0162 11.6596 54.0162 11.849 54.0162 11.9572C53.9352 12.1466 53.8812 12.336 53.8002 12.5254L53.8272 12.4442C53.8272 12.4442 53.7192 12.6877 53.3952 12.823C53.2332 12.8771 53.0712 12.9041 52.9092 12.85C52.6662 12.7959 52.4232 12.9583 52.3692 13.2017C52.3152 13.4452 52.4772 13.6887 52.7202 13.7429C52.8822 13.7699 53.0172 13.8511 53.1252 13.9863C53.2872 14.1757 53.3142 14.3651 53.3412 14.4733C53.3142 14.5816 53.3142 14.6898 53.2872 14.798C53.2602 14.8521 53.1792 15.0686 52.9362 15.2579C52.8012 15.3391 52.6392 15.3932 52.4772 15.3932C52.2342 15.3932 52.0182 15.5826 52.0182 15.8261C52.0182 16.0696 52.2072 16.286 52.4502 16.286C52.6122 16.286 52.7742 16.3401 52.9092 16.4484C53.1252 16.6107 53.2062 16.8271 53.2062 16.9083C53.2062 17.0436 53.2332 17.1789 53.2332 17.3412C53.2332 17.4224 53.1792 17.6388 52.9902 17.8282C52.8822 17.9364 52.7202 18.0176 52.5582 18.0446C52.3152 18.0987 52.1532 18.3152 52.1802 18.5857C52.2342 18.8292 52.4502 18.9916 52.7202 18.9645C52.8822 18.9374 53.0442 18.9645 53.2062 19.0186C53.4492 19.1268 53.5572 19.3162 53.5842 19.3974C53.6112 19.5327 53.6652 19.6679 53.6922 19.8032L53.6652 19.722C53.6652 19.722 53.7192 19.9926 53.5572 20.2902C53.5302 20.3443 53.3952 20.4525 53.2332 20.5337C52.9902 20.6419 52.8822 20.8854 52.9902 21.1289C53.0982 21.3724 53.3412 21.4806 53.5842 21.3724C53.7462 21.3183 53.9082 21.2912 54.0702 21.3183C54.3132 21.3724 54.4752 21.5347 54.5292 21.5888C54.6101 21.7241 54.6911 21.8865 54.7721 22.0217C54.7991 22.1299 54.8261 22.2923 54.7451 22.5087C54.6911 22.6711 54.5832 22.8063 54.4482 22.8875C54.2052 23.0228 54.1782 23.3204 54.3132 23.5098C54.4482 23.6991 54.7451 23.7533 54.9341 23.618C55.0691 23.5368 55.2311 23.4557 55.3931 23.4827C55.5551 23.4827 55.6901 23.5368 55.7981 23.5909C55.9331 23.7533 56.0411 23.8885 56.1761 24.0509C56.2301 24.132 56.2841 24.3214 56.2571 24.5649C56.2301 24.7272 56.1491 24.8896 56.0411 24.9978C55.8791 25.1872 55.8791 25.4577 56.0681 25.6471C56.2571 25.8095 56.5271 25.8095 56.7161 25.6201C56.8241 25.5118 56.9861 25.4036 57.1481 25.3766C57.31 25.3495 57.445 25.3766 57.553 25.4036C57.715 25.5389 57.877 25.6742 58.039 25.7824C58.093 25.8636 58.174 26.0259 58.201 26.2153C58.228 26.3776 58.174 26.5399 58.093 26.6752C57.985 26.8917 58.039 27.1893 58.255 27.2975C58.471 27.4328 58.741 27.3516 58.876 27.1352C58.957 26.9999 59.092 26.8917 59.227 26.8105C59.389 26.7293 59.551 26.7293 59.659 26.7564C59.8479 26.8646 60.0639 26.9458 60.2799 27.054C60.3609 27.1352 60.4689 27.2434 60.5229 27.4328C60.5769 27.5951 60.5769 27.7574 60.5229 27.9198C60.4419 28.1632 60.5769 28.4067 60.8199 28.4879C61.0629 28.5691 61.3059 28.4338 61.3869 28.1903C61.4409 28.028 61.5489 27.8927 61.6839 27.7845C61.8189 27.6763 61.9539 27.6492 62.0619 27.6221C62.2779 27.6763 62.4938 27.7304 62.7368 27.7845C62.8178 27.8386 62.9528 27.9468 63.0338 28.1091C63.1148 28.2444 63.1418 28.4338 63.1148 28.5961C63.0878 28.8396 63.2768 29.0831 63.5198 29.1102C63.7628 29.1372 64.0058 28.9478 64.0328 28.7043C64.0598 28.542 64.1138 28.3797 64.2218 28.2715C64.3298 28.1362 64.4648 28.0821 64.5458 28.055C64.7348 28.055 64.8968 28.055 65.0857 28.055C65.0857 28.055 65.0857 28.055 65.1127 28.055C65.1937 28.0821 65.4097 28.1362 65.5717 28.3256C65.6797 28.4609 65.7337 28.5961 65.7607 28.7855C65.7877 29.029 66.0037 29.2184 66.2467 29.1913C66.4897 29.1643 66.6787 28.9478 66.6517 28.7043C66.6247 28.542 66.6787 28.3797 66.7597 28.2174C66.9487 27.9198 67.1917 27.8386 67.1917 27.8386H67.1647C67.2727 27.8115 67.3807 27.8115 67.4887 27.7845C67.5427 27.7845 67.7856 27.7845 68.0286 27.9739C68.1636 28.0821 68.2446 28.2174 68.2986 28.3797C68.3796 28.6232 68.6226 28.7585 68.8656 28.6773C69.1086 28.5961 69.2436 28.3526 69.1626 28.1091C69.1086 27.9468 69.1086 27.7845 69.1626 27.6221C69.2706 27.2975 69.5136 27.1622 69.5136 27.1622H69.4866C69.6216 27.1081 69.7836 27.0269 69.9186 26.9728C70.0266 26.9458 70.2155 26.9458 70.4045 27.054C70.5665 27.1352 70.6745 27.2434 70.7555 27.3786C70.8905 27.5951 71.1605 27.6763 71.3765 27.568C71.5925 27.4328 71.6735 27.1622 71.5655 26.9458C71.4845 26.8105 71.4575 26.6211 71.4575 26.4588C71.4845 26.1882 71.6195 26.0259 71.7005 25.9718C71.8625 25.8636 72.0515 25.7283 72.2135 25.6201C72.3215 25.593 72.4565 25.566 72.6455 25.6201C72.8074 25.6471 72.9424 25.7553 73.0504 25.8636C73.2124 26.0529 73.5094 26.08 73.6984 25.9177C73.8874 25.7553 73.9144 25.4577 73.7524 25.2683C73.6444 25.1331 73.5634 24.9978 73.5634 24.8355C73.5364 24.5649 73.6444 24.3755 73.6984 24.2944C73.7794 24.2132 73.8604 24.105 73.9414 24.0238C74.0224 23.9697 74.1844 23.8615 74.4544 23.8615C74.6164 23.8615 74.7784 23.9156 74.9134 24.0238C75.1024 24.1861 75.3993 24.132 75.5613 23.9426C75.7233 23.7533 75.6693 23.4557 75.4803 23.2933C75.3454 23.1851 75.2374 23.0498 75.2104 22.8875C75.1024 22.5628 75.2374 22.3193 75.2374 22.3193L75.0754 22.5358C75.1834 22.3464 75.2914 22.1841 75.3993 21.9947C75.4533 21.9406 75.6153 21.7782 75.8853 21.7241C76.0473 21.6971 76.2093 21.7241 76.3713 21.7782C76.5873 21.8865 76.8573 21.7782 76.9653 21.5618C77.0733 21.3454 76.9653 21.0748 76.7493 20.9666C76.5873 20.8854 76.4793 20.7772 76.3983 20.6419C76.2633 20.3984 76.2903 20.182 76.2903 20.1008C76.3443 19.9655 76.3713 19.8573 76.4253 19.722C76.4793 19.6409 76.5873 19.4785 76.8303 19.3703C76.9923 19.3162 77.1543 19.2892 77.3163 19.3162C77.5593 19.3703 77.8023 19.208 77.8563 18.9645C77.9103 18.721 77.7483 18.4775 77.5053 18.4234C77.3433 18.3963 77.1813 18.3152 77.0733 18.1799C76.9113 17.9905 76.8573 17.8011 76.8573 17.6929C76.8843 17.5576 76.8843 17.4224 76.9113 17.2871C76.9383 17.2059 77.0193 17.0165 77.2353 16.8542C77.3703 16.746 77.5323 16.7189 77.6943 16.7189C77.9373 16.7189 78.1532 16.5295 78.1532 16.259C78.0452 16.0425 77.8563 15.8261 77.6133 15.8261ZM66.5707 7.33078C66.5707 7.33078 70.7825 7.38489 73.1044 11.9843L72.9154 12.336L69.6216 13.4182C69.4596 13.4723 69.2976 13.4994 69.1356 13.4994C68.4606 13.5264 66.8677 13.3641 66.4087 11.3349C66.3817 11.2267 66.3817 11.0914 66.3817 10.9562L66.3277 7.70955L66.5707 7.33078ZM65.0587 14.8792C65.8147 14.8792 66.4357 15.5014 66.4357 16.259C66.4357 17.0165 65.8147 17.6388 65.0587 17.6388C64.3028 17.6388 63.6818 17.0165 63.6818 16.259C63.6548 15.5014 64.2758 14.8792 65.0587 14.8792ZM63.4118 7.33078L63.6818 7.60133V11.0914C63.6818 11.2538 63.6548 11.4161 63.6278 11.5784C63.4388 12.2278 62.7908 13.6887 60.7119 13.4994C60.5769 13.4994 60.4689 13.4723 60.3609 13.4182L57.256 12.4442L56.9591 12.0654C56.9591 12.0925 58.336 8.11538 63.4118 7.33078ZM60.8199 19.9114L58.903 22.5358L58.444 22.6981C58.444 22.6981 55.1231 20.1008 56.0681 15.0415L56.4191 14.8792L59.713 16.0155C59.8749 16.0696 60.0099 16.1508 60.1449 16.2319C60.6849 16.6107 61.8729 17.72 61.0089 19.6138C60.9549 19.695 60.8739 19.8032 60.8199 19.9114ZM69.0816 24.592C64.5188 26.9728 61.0629 24.5379 61.0629 24.5379L61.0899 24.0509L63.0338 21.4536C63.1148 21.3454 63.1958 21.2642 63.2768 21.183C64.8428 19.8032 66.2467 20.6149 66.7597 21.0207C66.8947 21.1289 67.0027 21.2371 67.1107 21.3724L69.1626 24.1861L69.0816 24.592ZM71.6735 22.6711L71.2145 22.5087L69.2976 19.8844C69.2166 19.7761 69.1626 19.6679 69.1086 19.5597C68.2446 17.6658 69.4326 16.5836 69.9726 16.2049C70.1076 16.1237 70.2695 16.0425 70.4045 15.9884L73.6984 14.8521L74.0494 15.0144C74.9944 20.0738 71.6735 22.6711 71.6735 22.6711Z" fill="#181A1B"></path></g><defs><clipPath id="clip0_345_2799"><rect width="163.322" height="30.1898" fill="white" transform="translate(0.0686035 1.06055)"></rect></clipPath><clipPath id="clip1_345_2799"><rect width="26" height="26" fill="white" transform="translate(52.0452 3.21875)"></rect></clipPath></defs></svg>